<?xml version="1.0" standalone="no"?>
<!DOCTYPE svg PUBLIC "-//W3C//DTD SVG 20010904//EN"
 "http://www.w3.org/TR/2001/REC-SVG-20010904/DTD/svg10.dtd">
<svg version="1.0" xmlns="http://www.w3.org/2000/svg"
 width="300.000000pt" height="300.000000pt" viewBox="0 0 300.000000 300.000000"
 preserveAspectRatio="xMidYMid meet">
<metadata>
Created by potrace 1.14, written by Peter Selinger 2001-2017
</metadata>
<g transform="translate(0.000000,300.000000) scale(0.100000,-0.100000)"
fill="#000000" stroke="none">
<path d="M1000 2659 c0 -5 -7 -6 -15 -3 -23 9 -60 -20 -81 -63 -10 -21 -19
-40 -19 -43 -1 -3 -9 -31 -18 -62 -10 -32 -18 -60 -18 -63 0 -3 -8 -25 -19
-50 -11 -25 -17 -45 -15 -45 2 0 -3 -16 -11 -35 -8 -19 -11 -35 -8 -35 4 0 1
-6 -5 -13 -6 -8 -8 -17 -4 -20 3 -4 1 -7 -6 -7 -7 0 -9 -4 -6 -10 3 -5 3 -16
-2 -22 -8 -14 -11 -27 -17 -67 -4 -27 19 -91 33 -91 14 0 24 -39 14 -53 -8 -9
-25 -59 -38 -107 -1 -3 -9 -31 -19 -63 -10 -32 -15 -69 -12 -83 8 -32 45 -74
65 -74 22 -1 57 -23 55 -35 0 -5 -6 -23 -13 -40 -38 -89 -81 -220 -81 -245 0
-43 18 -74 53 -95 33 -20 87 -21 119 -4 10 5 18 8 18 6 0 -2 -16 -48 -36 -103
-20 -54 -47 -133 -61 -174 -14 -41 -29 -80 -34 -85 -4 -6 -7 -33 -5 -59 2 -41
8 -54 36 -79 31 -27 37 -29 89 -24 31 3 57 11 59 17 2 5 9 10 16 10 11 0 168
64 190 77 6 4 16 8 21 9 10 1 51 19 140 59 49 22 146 57 148 53 1 -1 7 -12 14
-23 7 -11 43 -81 80 -155 37 -74 70 -137 73 -140 4 -3 23 -39 43 -80 44 -88
54 -101 87 -123 42 -27 74 -21 209 40 135 61 148 103 80 249 -18 38 -33 71
-34 74 0 3 -18 41 -39 85 -21 44 -47 100 -58 125 -11 25 -28 62 -39 83 -10 22
-19 45 -19 53 0 8 26 27 58 42 31 16 68 34 82 42 14 8 27 15 30 15 3 0 58 26
122 58 64 31 121 57 127 57 6 0 11 5 11 10 0 6 3 9 8 8 4 -1 28 9 53 21 45 23
86 72 74 90 -3 5 -1 13 5 16 8 5 7 11 -1 21 -6 8 -9 17 -6 21 4 3 -4 16 -18
28 -13 13 -22 25 -20 27 2 2 -49 23 -113 46 -174 64 -224 83 -255 97 l-29 12
31 22 c36 26 58 66 56 101 -2 36 -25 79 -47 85 -10 4 -18 11 -18 16 0 6 -4 8
-9 4 -5 -3 -12 -1 -16 5 -3 5 -14 10 -23 10 -9 0 -30 7 -46 15 -15 8 -32 15
-36 15 -4 0 -24 7 -44 15 -20 8 -39 16 -43 16 -5 1 -16 5 -26 11 -17 9 -17 11
-3 33 41 62 16 144 -52 171 -20 8 -46 19 -57 23 -56 24 -129 51 -137 51 -15 0
-40 29 -34 39 16 25 -35 96 -77 106 -15 4 -27 11 -27 16 0 5 -3 8 -7 7 -5 -2
-58 19 -120 45 -62 26 -116 47 -121 47 -5 0 -15 7 -22 15 -7 9 -15 13 -18 11
-2 -3 -17 1 -32 9 -45 23 -110 43 -110 34z"/>
</g>
</svg>
